<svg width="41" height="24" viewBox="0 0 41 24" fill="none" xmlns="http://www.w3.org/2000/svg">
<path d="M20.5 1C23.9345 1 26.7885 1.95758 29.1211 3.83496C31.4464 5.70657 32.5459 7.91396 32.5459 10.5V11.4111L33.4521 11.4961C35.4077 11.6786 36.9743 12.3477 38.207 13.4707C39.4371 14.5915 40 15.8387 40 17.25C40 18.7844 39.3527 20.1042 37.9268 21.252C36.4939 22.4052 34.7421 23 32.6133 23H10.25C7.62175 23 5.43088 22.2728 3.62305 20.8516C1.82781 19.4402 1 17.7909 1 15.8623C1.00005 14.1925 1.61446 12.6974 2.91211 11.3418C4.20628 9.98987 5.91563 9.10183 8.09766 8.70898L8.67871 8.60449L8.86816 8.04492C9.5603 5.99489 10.9455 4.30914 13.1016 2.99023C15.2613 1.66917 17.7181 1 20.5 1ZM20.5 2C17.7194 2 15.2939 2.7943 13.2803 4.41504C11.5455 5.81142 10.507 7.51496 10.248 9.5C8.24402 9.50037 6.47981 10.0764 5.01074 11.2588C3.53541 12.4462 2.72754 13.9562 2.72754 15.75C2.72754 17.5438 3.53541 19.0538 5.01074 20.2412C6.48029 21.424 8.24516 22 10.25 22H32.6133C34.115 22 35.4477 21.5777 36.5488 20.6914C37.6581 19.7985 38.2725 18.6359 38.2725 17.25C38.2725 15.8641 37.6581 14.7015 36.5488 13.8086C35.4477 12.9223 34.115 12.5 32.6133 12.5H30.8184V10.5C30.8184 8.08221 29.7393 6.04066 27.7197 4.41504C25.7061 2.7943 23.2806 2 20.5 2Z" fill="white" stroke="#B7FAFF" stroke-width="2"/>
</svg>
