<svg width="41" height="41" viewBox="0 0 41 41" fill="none" xmlns="http://www.w3.org/2000/svg">
<path d="M7.74805 31.8086C8.022 31.6627 8.25192 31.6508 8.50684 31.7412C8.78864 31.8412 8.99608 32.0145 9.15527 32.3066L12.2256 38.4395L12.2314 38.4512L12.2383 38.4629C12.3842 38.7363 12.3959 38.9657 12.3057 39.2197C12.2043 39.5047 12.0279 39.7149 11.7275 39.875C11.4535 40.021 11.2237 40.0328 10.9688 39.9424C10.7185 39.8537 10.5264 39.7077 10.375 39.4717L10.3125 39.3643L7.24902 33.2441L7.2373 33.2207L7.18848 33.1201C7.08951 32.8897 7.08997 32.6862 7.16895 32.4639C7.27027 32.1788 7.44754 31.9687 7.74805 31.8086ZM20.0479 31.8086C20.3219 31.6626 20.5517 31.6508 20.8066 31.7412C21.0568 31.8299 21.249 31.9759 21.4004 32.2119L21.4629 32.3193L24.5254 38.4395L24.5312 38.4512L24.5381 38.4629C24.684 38.7363 24.6957 38.9657 24.6055 39.2197C24.5041 39.5047 24.3278 39.7149 24.0273 39.875C23.7533 40.021 23.5236 40.0328 23.2686 39.9424C23.0184 39.8537 22.8262 39.7077 22.6748 39.4717L22.6123 39.3643L19.5488 33.2441L19.5371 33.2207L19.4883 33.1201C19.3893 32.8897 19.3898 32.6862 19.4688 32.4639C19.5701 32.1787 19.7473 31.9687 20.0479 31.8086ZM32.3477 31.8086C32.6217 31.6626 32.8514 31.6508 33.1064 31.7412C33.3566 31.8299 33.5488 31.9759 33.7002 32.2119L33.7627 32.3193L36.8262 38.4395L36.8379 38.4629C36.9838 38.7363 36.9965 38.9657 36.9062 39.2197C36.8049 39.5049 36.6277 39.7149 36.3271 39.875C36.0531 40.021 35.8233 40.0328 35.5684 39.9424C35.2824 39.841 35.0722 39.6642 34.9121 39.3643L31.8496 33.2441L31.8438 33.2324L31.8369 33.2207L31.7891 33.1201C31.69 32.8896 31.6905 32.6863 31.7695 32.4639C31.8709 32.1789 32.0472 31.9687 32.3477 31.8086ZM20.5 1C23.3413 1 25.7815 1.89943 27.8672 3.70117C29.9633 5.512 31.2189 7.75082 31.6592 10.4521L31.7842 11.2207L32.5596 11.2881C34.6686 11.4713 36.4194 12.3308 37.8564 13.8887C39.2874 15.4401 40 17.2784 40 19.457C40 21.7547 39.2065 23.6758 37.6025 25.2783C35.9987 26.8806 34.0757 27.6737 31.7754 27.6738H11.2754C8.43185 27.6738 6.02934 26.6779 4.0127 24.6631C1.99618 22.6484 1.00007 20.2491 1 17.4092C1 14.8204 1.84994 12.5816 3.56641 10.6484C5.28907 8.70832 7.3959 7.58022 9.92285 7.2373L10.417 7.1709L10.6602 6.73633C11.668 4.94284 13.0379 3.54559 14.7783 2.52734C16.5172 1.51007 18.4176 1 20.5 1ZM20.5 3.09668C18.6679 3.09668 16.9812 3.59525 15.4658 4.5918C13.9552 5.58527 12.8153 6.92801 12.0557 8.59766L12.0498 8.6123L12.043 8.62695L11.7871 9.24023H11.1553L11.1377 9.24121C8.93639 9.31838 7.03068 10.1485 5.46875 11.709C3.89838 13.2779 3.09961 15.1965 3.09961 17.4092C3.09968 19.6543 3.90573 21.5986 5.49414 23.1855C7.08264 24.7726 9.02889 25.5771 11.2754 25.5771H31.7754C33.4679 25.5771 34.9368 24.9819 36.1201 23.7998C37.3036 22.6174 37.9004 21.149 37.9004 19.457C37.9004 17.765 37.3036 16.2966 36.1201 15.1143C34.9368 13.9321 33.4679 13.337 31.7754 13.3369H29.7002V12.2891C29.7002 9.76852 28.79 7.58524 26.998 5.79492C25.2061 4.00475 23.0219 3.09668 20.5 3.09668Z" fill="white" stroke="#B7FAFF" stroke-width="2"/>
</svg>
