<svg width="41" height="41" viewBox="0 0 41 41" fill="none" xmlns="http://www.w3.org/2000/svg">
<path d="M5.945 30.4817C3.9975 28.3351 2.51979 25.9559 1.51187 23.3442C0.503958 20.7325 0 18.0314 0 15.2408C0 12.4503 0.503958 9.74913 1.51187 7.13743C2.51979 4.52574 3.9975 2.1466 5.945 0L8.405 2.57592C6.765 4.29319 5.535 6.26985 4.715 8.50589C3.895 10.7419 3.485 12.9869 3.485 15.2408C3.485 17.4948 3.895 19.7397 4.715 21.9758C5.535 24.2118 6.765 26.1885 8.405 27.9058L5.945 30.4817ZM10.865 25.3298C9.5325 23.9346 8.51604 22.3604 7.81562 20.6073C7.11521 18.8543 6.765 17.0654 6.765 15.2408C6.765 13.4162 7.11521 11.6274 7.81562 9.87435C8.51604 8.12129 9.5325 6.54712 10.865 5.15183L13.325 7.72775C12.3 8.69372 11.5312 9.83857 11.0187 11.1623C10.5062 12.486 10.25 13.8456 10.25 15.2408C10.25 16.5288 10.5062 17.8346 11.0187 19.1584C11.5312 20.4821 12.3 21.6806 13.325 22.7539L10.865 25.3298ZM10.25 41L17.1687 19.2657C16.6221 18.7648 16.1865 18.1745 15.8619 17.4948C15.5373 16.815 15.375 16.0637 15.375 15.2408C15.375 13.7382 15.8704 12.4682 16.8612 11.4306C17.8521 10.3931 19.065 9.87435 20.5 9.87435C21.935 9.87435 23.1479 10.3931 24.1387 11.4306C25.1296 12.4682 25.625 13.7382 25.625 15.2408C25.625 16.0637 25.4627 16.815 25.1381 17.4948C24.8135 18.1745 24.3779 18.7648 23.8312 19.2657L30.75 41H26.65L25.3175 36.7068H15.7337L14.35 41H10.25ZM17.0662 32.4136H23.9337L20.5 21.6806L17.0662 32.4136ZM30.135 25.3298L27.675 22.7539C28.7 21.788 29.4687 20.6431 29.9812 19.3194C30.4937 17.9956 30.75 16.6361 30.75 15.2408C30.75 13.9529 30.4937 12.647 29.9812 11.3233C29.4687 9.99956 28.7 8.80105 27.675 7.72775L30.135 5.15183C31.4675 6.54712 32.4583 8.12129 33.1075 9.87435C33.7567 11.6274 34.1325 13.4162 34.235 15.2408C34.235 17.0654 33.8848 18.8543 33.1844 20.6073C32.484 22.3604 31.4675 23.9346 30.135 25.3298ZM35.055 30.4817L32.595 27.9058C34.235 26.1885 35.465 24.2118 36.285 21.9758C37.105 19.7397 37.515 17.4948 37.515 15.2408C37.515 12.9869 37.105 10.7419 36.285 8.50589C35.465 6.26985 34.235 4.29319 32.595 2.57592L35.055 0C37.0025 2.1466 38.4802 4.52574 39.4881 7.13743C40.496 9.74913 41 12.4503 41 15.2408C41 18.0314 40.5217 20.7325 39.565 23.3442C38.6083 25.9559 37.105 28.3351 35.055 30.4817Z" fill="#95FF80"/>
</svg>
