<svg width="41" height="43" viewBox="0 0 41 43" fill="none" xmlns="http://www.w3.org/2000/svg">
<path d="M15.375 38.8809C15.8348 38.8809 16.1845 39.0286 16.4873 39.3311C16.79 39.6334 16.9375 39.9822 16.9375 40.4404C16.9375 40.8987 16.79 41.2474 16.4873 41.5498C16.1845 41.8522 15.8348 42 15.375 42C14.9152 42 14.5655 41.8522 14.2627 41.5498C13.96 41.2474 13.8125 40.8987 13.8125 40.4404C13.8125 39.9822 13.96 39.6334 14.2627 39.3311C14.5655 39.0286 14.9152 38.8809 15.375 38.8809ZM27.6748 38.8809C28.1346 38.8809 28.4853 39.0286 28.7881 39.3311C29.0906 39.6334 29.2373 39.9824 29.2373 40.4404C29.2373 40.8985 29.0906 41.2475 28.7881 41.5498C28.4853 41.8522 28.1346 42 27.6748 42C27.2151 42 26.8653 41.8522 26.5625 41.5498C26.2598 41.2474 26.1123 40.8986 26.1123 40.4404C26.1123 39.9823 26.2598 39.6334 26.5625 39.3311C26.8653 39.0287 27.2151 38.8809 27.6748 38.8809ZM9.22461 32.7383C9.68438 32.7383 10.0351 32.8851 10.3379 33.1875C10.6406 33.4899 10.7871 33.8396 10.7871 34.2979C10.7871 34.7559 10.6405 35.1049 10.3379 35.4072C10.0351 35.7097 9.68442 35.8574 9.22461 35.8574C8.76499 35.8573 8.41501 35.7096 8.1123 35.4072C7.80966 35.1049 7.66216 34.7559 7.66211 34.2979C7.66211 33.8396 7.80956 33.4899 8.1123 33.1875C8.41497 32.8853 8.76508 32.7384 9.22461 32.7383ZM21.5254 32.7383C21.9849 32.7384 22.335 32.8853 22.6377 33.1875C22.9404 33.4899 23.0879 33.8396 23.0879 34.2979C23.0878 34.7559 22.9403 35.1049 22.6377 35.4072C22.335 35.7096 21.985 35.8573 21.5254 35.8574C21.0656 35.8574 20.7149 35.7097 20.4121 35.4072C20.1095 35.1049 19.9629 34.7559 19.9629 34.2979C19.9629 33.8396 20.1094 33.4899 20.4121 33.1875C20.7149 32.8851 21.0656 32.7383 21.5254 32.7383ZM33.8252 32.7383C34.2848 32.7383 34.6348 32.8853 34.9375 33.1875C35.2402 33.4899 35.3877 33.8396 35.3877 34.2979C35.3876 34.756 35.2402 35.1049 34.9375 35.4072C34.6348 35.7096 34.2849 35.8574 33.8252 35.8574C33.3654 35.8574 33.0147 35.7097 32.7119 35.4072C32.4094 35.1049 32.2627 34.7558 32.2627 34.2979C32.2627 33.8396 32.4092 33.4899 32.7119 33.1875C33.0147 32.8851 33.3654 32.7383 33.8252 32.7383ZM20.5 1C23.3414 1 25.7815 1.89889 27.8672 3.7002C29.9635 5.51071 31.219 7.74934 31.6592 10.4502L31.7842 11.2178L32.5596 11.2852C34.6686 11.4683 36.4195 12.3274 37.8564 13.8848C39.2875 15.4358 39.9999 17.2741 40 19.4521C40 21.7491 39.2065 23.6694 37.6025 25.2715C35.9986 26.8735 34.0759 27.6669 31.7754 27.667H11.2754C8.43183 27.667 6.0293 26.6714 4.0127 24.6572C1.99611 22.643 1 20.2435 1 17.4043C1.0001 14.8165 1.85016 12.579 3.56641 10.6465C5.28904 8.70687 7.39586 7.57917 9.92285 7.23633L10.417 7.16895L10.6602 6.73535C11.6679 4.94232 13.0378 3.54536 14.7783 2.52734C16.5172 1.51028 18.4175 1 20.5 1ZM20.5 3.0957C18.6679 3.0957 16.9812 3.59452 15.4658 4.59082C13.9553 5.58404 12.8153 6.92647 12.0557 8.5957L12.0498 8.60938L12.043 8.625L11.7871 9.23828H11.1377C8.93643 9.31543 7.0307 10.1459 5.46875 11.7061C3.89849 13.2745 3.09972 15.1922 3.09961 17.4043C3.09961 19.649 3.90587 21.5931 5.49414 23.1797C7.08266 24.7664 9.02897 25.5713 11.2754 25.5713H31.7754C33.4679 25.5712 34.9368 24.9759 36.1201 23.7939C37.3036 22.6118 37.9004 21.1439 37.9004 19.4521C37.9003 17.7605 37.3036 16.2924 36.1201 15.1104C34.9368 13.9285 33.4678 13.3331 31.7754 13.333H29.7002V12.2861C29.7002 9.76614 28.7899 7.58383 26.998 5.79395C25.2061 4.00406 23.0219 3.0957 20.5 3.0957Z" fill="#FFFEFE" stroke="#B7FAFF" stroke-width="2"/>
</svg>
