<svg width="41" height="41" viewBox="0 0 41 41" fill="none" xmlns="http://www.w3.org/2000/svg">
<path d="M18.6364 7.45455V0H22.3636V7.45455H18.6364ZM31.0295 12.5795L28.467 10.017L33.6852 4.65909L36.2943 7.31477L31.0295 12.5795ZM33.5455 22.3636V18.6364H41V22.3636H33.5455ZM18.6364 41V33.5455H22.3636V41H18.6364ZM9.97045 12.4864L4.65909 7.31477L7.31477 4.70568L12.5795 9.97045L9.97045 12.4864ZM33.6386 36.3409L28.467 30.983L30.983 28.467L36.2943 33.592L33.6386 36.3409ZM0 22.3636V18.6364H7.45455V22.3636H0ZM7.31477 36.3409L4.70568 33.6852L9.92386 28.467L11.275 29.725L12.6261 31.0295L7.31477 36.3409ZM20.5 31.6818C17.3939 31.6818 14.7538 30.5947 12.5795 28.4205C10.4053 26.2462 9.31818 23.6061 9.31818 20.5C9.31818 17.3939 10.4053 14.7538 12.5795 12.5795C14.7538 10.4053 17.3939 9.31818 20.5 9.31818C23.6061 9.31818 26.2462 10.4053 28.4205 12.5795C30.5947 14.7538 31.6818 17.3939 31.6818 20.5C31.6818 23.6061 30.5947 26.2462 28.4205 28.4205C26.2462 30.5947 23.6061 31.6818 20.5 31.6818ZM20.5 27.9545C22.55 27.9545 24.3049 27.2246 25.7648 25.7648C27.2246 24.3049 27.9545 22.55 27.9545 20.5C27.9545 18.45 27.2246 16.6951 25.7648 15.2352C24.3049 13.7754 22.55 13.0455 20.5 13.0455C18.45 13.0455 16.6951 13.7754 15.2352 15.2352C13.7754 16.6951 13.0455 18.45 13.0455 20.5C13.0455 22.55 13.7754 24.3049 15.2352 25.7648C16.6951 27.2246 18.45 27.9545 20.5 27.9545Z" fill="#DAFF0B"/>
</svg>
